<svg xmlns="http://www.w3.org/2000/svg" viewBox="0 0 27 27" preserveAspectRatio="meet" class="qr-svg"><rect width="100%" height="100%" fill="white"></rect><path d="M1 1h1v1h-1zM2 1h1v1h-1zM3 1h1v1h-1zM4 1h1v1h-1zM5 1h1v1h-1zM6 1h1v1h-1zM7 1h1v1h-1zM9 1h1v1h-1zM10 1h1v1h-1zM11 1h1v1h-1zM15 1h1v1h-1zM16 1h1v1h-1zM17 1h1v1h-1zM19 1h1v1h-1zM20 1h1v1h-1zM21 1h1v1h-1zM22 1h1v1h-1zM23 1h1v1h-1zM24 1h1v1h-1zM25 1h1v1h-1zM1 2h1v1h-1zM7 2h1v1h-1zM11 2h1v1h-1zM14 2h1v1h-1zM15 2h1v1h-1zM19 2h1v1h-1zM25 2h1v1h-1zM1 3h1v1h-1zM3 3h1v1h-1zM4 3h1v1h-1zM5 3h1v1h-1zM7 3h1v1h-1zM11 3h1v1h-1zM13 3h1v1h-1zM16 3h1v1h-1zM19 3h1v1h-1zM21 3h1v1h-1zM22 3h1v1h-1zM23 3h1v1h-1zM25 3h1v1h-1zM1 4h1v1h-1zM3 4h1v1h-1zM4 4h1v1h-1zM5 4h1v1h-1zM7 4h1v1h-1zM9 4h1v1h-1zM14 4h1v1h-1zM15 4h1v1h-1zM16 4h1v1h-1zM19 4h1v1h-1zM21 4h1v1h-1zM22 4h1v1h-1zM23 4h1v1h-1zM25 4h1v1h-1zM1 5h1v1h-1zM3 5h1v1h-1zM4 5h1v1h-1zM5 5h1v1h-1zM7 5h1v1h-1zM9 5h1v1h-1zM10 5h1v1h-1zM13 5h1v1h-1zM14 5h1v1h-1zM16 5h1v1h-1zM17 5h1v1h-1zM19 5h1v1h-1zM21 5h1v1h-1zM22 5h1v1h-1zM23 5h1v1h-1zM25 5h1v1h-1zM1 6h1v1h-1zM7 6h1v1h-1zM9 6h1v1h-1zM13 6h1v1h-1zM14 6h1v1h-1zM17 6h1v1h-1zM19 6h1v1h-1zM25 6h1v1h-1zM1 7h1v1h-1zM2 7h1v1h-1zM3 7h1v1h-1zM4 7h1v1h-1zM5 7h1v1h-1zM6 7h1v1h-1zM7 7h1v1h-1zM9 7h1v1h-1zM11 7h1v1h-1zM13 7h1v1h-1zM15 7h1v1h-1zM17 7h1v1h-1zM19 7h1v1h-1zM20 7h1v1h-1zM21 7h1v1h-1zM22 7h1v1h-1zM23 7h1v1h-1zM24 7h1v1h-1zM25 7h1v1h-1zM9 8h1v1h-1zM15 8h1v1h-1zM16 8h1v1h-1zM17 8h1v1h-1zM1 9h1v1h-1zM5 9h1v1h-1zM7 9h1v1h-1zM8 9h1v1h-1zM9 9h1v1h-1zM10 9h1v1h-1zM11 9h1v1h-1zM12 9h1v1h-1zM16 9h1v1h-1zM18 9h1v1h-1zM19 9h1v1h-1zM20 9h1v1h-1zM21 9h1v1h-1zM22 9h1v1h-1zM25 9h1v1h-1zM1 10h1v1h-1zM2 10h1v1h-1zM4 10h1v1h-1zM5 10h1v1h-1zM6 10h1v1h-1zM8 10h1v1h-1zM10 10h1v1h-1zM11 10h1v1h-1zM13 10h1v1h-1zM14 10h1v1h-1zM15 10h1v1h-1zM16 10h1v1h-1zM17 10h1v1h-1zM21 10h1v1h-1zM22 10h1v1h-1zM24 10h1v1h-1zM1 11h1v1h-1zM3 11h1v1h-1zM5 11h1v1h-1zM7 11h1v1h-1zM10 11h1v1h-1zM11 11h1v1h-1zM12 11h1v1h-1zM14 11h1v1h-1zM16 11h1v1h-1zM21 11h1v1h-1zM22 11h1v1h-1zM23 11h1v1h-1zM2 12h1v1h-1zM6 12h1v1h-1zM11 12h1v1h-1zM13 12h1v1h-1zM19 12h1v1h-1zM21 12h1v1h-1zM23 12h1v1h-1zM24 12h1v1h-1zM2 13h1v1h-1zM3 13h1v1h-1zM4 13h1v1h-1zM5 13h1v1h-1zM6 13h1v1h-1zM7 13h1v1h-1zM8 13h1v1h-1zM9 13h1v1h-1zM11 13h1v1h-1zM13 13h1v1h-1zM15 13h1v1h-1zM18 13h1v1h-1zM19 13h1v1h-1zM20 13h1v1h-1zM22 13h1v1h-1zM23 13h1v1h-1zM24 13h1v1h-1zM25 13h1v1h-1zM1 14h1v1h-1zM2 14h1v1h-1zM3 14h1v1h-1zM5 14h1v1h-1zM8 14h1v1h-1zM10 14h1v1h-1zM11 14h1v1h-1zM13 14h1v1h-1zM15 14h1v1h-1zM16 14h1v1h-1zM17 14h1v1h-1zM21 14h1v1h-1zM24 14h1v1h-1zM3 15h1v1h-1zM5 15h1v1h-1zM7 15h1v1h-1zM12 15h1v1h-1zM14 15h1v1h-1zM15 15h1v1h-1zM16 15h1v1h-1zM17 15h1v1h-1zM18 15h1v1h-1zM20 15h1v1h-1zM21 15h1v1h-1zM22 15h1v1h-1zM23 15h1v1h-1zM3 16h1v1h-1zM4 16h1v1h-1zM6 16h1v1h-1zM9 16h1v1h-1zM20 16h1v1h-1zM21 16h1v1h-1zM23 16h1v1h-1zM24 16h1v1h-1zM1 17h1v1h-1zM2 17h1v1h-1zM5 17h1v1h-1zM7 17h1v1h-1zM8 17h1v1h-1zM9 17h1v1h-1zM10 17h1v1h-1zM11 17h1v1h-1zM16 17h1v1h-1zM17 17h1v1h-1zM18 17h1v1h-1zM19 17h1v1h-1zM20 17h1v1h-1zM21 17h1v1h-1zM22 17h1v1h-1zM23 17h1v1h-1zM9 18h1v1h-1zM10 18h1v1h-1zM11 18h1v1h-1zM12 18h1v1h-1zM15 18h1v1h-1zM17 18h1v1h-1zM21 18h1v1h-1zM1 19h1v1h-1zM2 19h1v1h-1zM3 19h1v1h-1zM4 19h1v1h-1zM5 19h1v1h-1zM6 19h1v1h-1zM7 19h1v1h-1zM9 19h1v1h-1zM12 19h1v1h-1zM13 19h1v1h-1zM17 19h1v1h-1zM19 19h1v1h-1zM21 19h1v1h-1zM1 20h1v1h-1zM7 20h1v1h-1zM10 20h1v1h-1zM11 20h1v1h-1zM12 20h1v1h-1zM15 20h1v1h-1zM16 20h1v1h-1zM17 20h1v1h-1zM21 20h1v1h-1zM22 20h1v1h-1zM23 20h1v1h-1zM24 20h1v1h-1zM25 20h1v1h-1zM1 21h1v1h-1zM3 21h1v1h-1zM4 21h1v1h-1zM5 21h1v1h-1zM7 21h1v1h-1zM9 21h1v1h-1zM10 21h1v1h-1zM17 21h1v1h-1zM18 21h1v1h-1zM19 21h1v1h-1zM20 21h1v1h-1zM21 21h1v1h-1zM22 21h1v1h-1zM23 21h1v1h-1zM1 22h1v1h-1zM3 22h1v1h-1zM4 22h1v1h-1zM5 22h1v1h-1zM7 22h1v1h-1zM10 22h1v1h-1zM11 22h1v1h-1zM12 22h1v1h-1zM15 22h1v1h-1zM16 22h1v1h-1zM17 22h1v1h-1zM18 22h1v1h-1zM19 22h1v1h-1zM20 22h1v1h-1zM23 22h1v1h-1zM24 22h1v1h-1zM25 22h1v1h-1zM1 23h1v1h-1zM3 23h1v1h-1zM4 23h1v1h-1zM5 23h1v1h-1zM7 23h1v1h-1zM10 23h1v1h-1zM11 23h1v1h-1zM12 23h1v1h-1zM13 23h1v1h-1zM14 23h1v1h-1zM15 23h1v1h-1zM16 23h1v1h-1zM18 23h1v1h-1zM19 23h1v1h-1zM22 23h1v1h-1zM24 23h1v1h-1zM1 24h1v1h-1zM7 24h1v1h-1zM10 24h1v1h-1zM11 24h1v1h-1zM13 24h1v1h-1zM15 24h1v1h-1zM16 24h1v1h-1zM18 24h1v1h-1zM19 24h1v1h-1zM20 24h1v1h-1zM21 24h1v1h-1zM22 24h1v1h-1zM23 24h1v1h-1zM24 24h1v1h-1zM1 25h1v1h-1zM2 25h1v1h-1zM3 25h1v1h-1zM4 25h1v1h-1zM5 25h1v1h-1zM6 25h1v1h-1zM7 25h1v1h-1zM9 25h1v1h-1zM11 25h1v1h-1zM12 25h1v1h-1zM13 25h1v1h-1zM15 25h1v1h-1zM16 25h1v1h-1zM18 25h1v1h-1zM19 25h1v1h-1zM23 25h1v1h-1zM24 25h1v1h-1zM25 25h1v1h-1z" fill="black"></path></svg>